<svg width="62" height="62" viewBox="0 0 62 62" fill="none" xmlns="http://www.w3.org/2000/svg">
<circle cx="31" cy="31" r="31" fill="black"/>
<path d="M34.5215 20.3129L33.684 20.592C33.365 20.6718 33.0593 20.7914 32.7669 20.9509C32.4744 21.0838 32.1288 21.3497 31.7301 21.7485C31.3579 22.1207 30.8926 22.6656 30.3344 23.3834C29.8027 24.0746 29.1115 25.0184 28.2607 26.2147L23.3558 33.1135L22.4387 40.2515C22.3589 40.7566 22.6247 41.0757 23.2362 41.2086L25.1902 41.6472L25.0307 43.4018H12.1902L12.5491 41.6472L14.6626 41.2086C15.274 41.1022 15.6196 40.7832 15.6994 40.2515L16.5767 33.592L11.6319 22.2669C11.3926 21.7618 11.1534 21.4029 10.9141 21.1902C10.6748 20.9509 10.3691 20.7648 9.99693 20.6319L9.11963 20.3129L9 18.4785H21.5613L21.4417 20.3129L19.9264 20.5521C19.1554 20.6851 18.7832 21.1104 18.8098 21.8282C18.863 22.546 19.1554 23.6759 19.6871 25.2178L21.8405 31.3589H22.2393L25.7485 26.2945C26.4397 25.2843 26.9581 24.4335 27.3037 23.7423C27.6759 23.0511 27.8885 22.4795 27.9417 22.0276C27.9949 21.5757 27.9151 21.2434 27.7025 21.0307C27.4898 20.7914 27.1575 20.6319 26.7055 20.5521L25.6288 20.3129L25.5092 18.4785H34.6411L34.5215 20.3129Z" fill="white"/>
<path d="M52.3348 35.6656C52.3348 36.9949 52.0689 38.1779 51.5372 39.2147C51.0321 40.2515 50.3276 41.1288 49.4237 41.8466C48.5199 42.5378 47.4432 43.0695 46.1937 43.4417C44.9442 43.8139 43.5751 44 42.0863 44C40.2254 44 38.5239 43.8538 36.982 43.5613C35.4667 43.2689 34.071 42.9366 32.7949 42.5644L33.7121 34.3497L37.1814 34.4693L38.4974 40.9693C39.0822 41.1554 39.6804 41.3149 40.2918 41.4479C40.9299 41.5542 41.661 41.6074 42.4851 41.6074C43.7612 41.6074 44.7315 41.2883 45.3961 40.6503C46.0873 39.9857 46.4329 39.1483 46.4329 38.138C46.4329 37.5798 46.3 37.1012 46.0342 36.7025C45.7683 36.2771 45.4094 35.9049 44.9575 35.5859C44.5055 35.2403 43.9871 34.9213 43.4023 34.6288L41.5679 33.7117C40.5045 33.18 39.5475 32.6748 38.6967 32.1963C37.846 31.6912 37.1282 31.1462 36.5434 30.5613C35.9585 29.9499 35.5066 29.2587 35.1875 28.4877C34.8951 27.6902 34.7489 26.7464 34.7489 25.6564C34.7489 24.593 34.9882 23.5961 35.4667 22.6656C35.9718 21.7352 36.663 20.9243 37.5403 20.2331C38.4442 19.5419 39.5076 18.9969 40.7305 18.5982C41.98 18.1994 43.3358 18 44.798 18C46.0741 18 47.2438 18.1196 48.3072 18.3589C49.3706 18.5716 50.5536 18.8374 51.8563 19.1564L54.1691 18.319L53.0526 26.9724L49.7826 26.8528L48.5863 21.0706C47.3634 20.6452 46.0076 20.4325 44.5188 20.4325C43.3225 20.4325 42.392 20.7382 41.7274 21.3497C41.0628 21.9346 40.7305 22.5593 40.7305 23.2239C40.7305 23.862 40.8767 24.4202 41.1691 24.8988C41.4616 25.3507 41.8471 25.7761 42.3256 26.1748C42.8307 26.547 43.4023 26.8926 44.0403 27.2117C44.7049 27.5307 45.3828 27.863 46.0741 28.2086C47.0311 28.6871 47.8951 29.1656 48.6661 29.6442C49.437 30.0961 50.0884 30.6145 50.6201 31.1994C51.1783 31.7577 51.6037 32.3957 51.8961 33.1135C52.1886 33.8313 52.3348 34.682 52.3348 35.6656Z" fill="white"/>
</svg>
